<mxfile host="app.diagrams.net" agent="Mozilla/5.0 (Windows NT 10.0; Win64; x64) AppleWebKit/537.36 (KHTML, like Gecko) Chrome/138.0.0.0 Safari/537.36" version="27.1.6">
  <diagram name="Page-1" id="bd83a815-5ea8-2e97-e5ec-87c9f400f2fa">
    <mxGraphModel dx="1426" dy="823" grid="1" gridSize="10" guides="1" tooltips="1" connect="1" arrows="1" fold="1" page="1" pageScale="1.5" pageWidth="1169" pageHeight="826" background="none" math="0" shadow="0">
      <root>
        <mxCell id="0" style=";html=1;" />
        <mxCell id="1" style=";html=1;" parent="0" />
        <mxCell id="1516e18e63f93b96-4" value="" style="whiteSpace=wrap;html=1;rounded=0;shadow=0;strokeWidth=1;fontSize=14" parent="1" vertex="1">
          <mxGeometry x="1400" y="1140" width="60" height="50" as="geometry" />
        </mxCell>
        <mxCell id="1516e18e63f93b96-5" value="Relation 8" style="whiteSpace=wrap;html=1;rounded=0;shadow=0;strokeWidth=1;fontSize=14" parent="1" vertex="1">
          <mxGeometry x="1460" y="1140" width="210" height="50" as="geometry" />
        </mxCell>
        <mxCell id="1516e18e63f93b96-12" value="" style="rhombus;whiteSpace=wrap;html=1;rounded=0;shadow=0;strokeWidth=3;fillColor=#000000;fontSize=14" parent="1" vertex="1">
          <mxGeometry x="1415" y="1150" width="30" height="30" as="geometry" />
        </mxCell>
        <mxCell id="1516e18e63f93b96-14" value="" style="whiteSpace=wrap;html=1;rounded=0;shadow=0;strokeWidth=1;fontSize=14" parent="1" vertex="1">
          <mxGeometry x="1400" y="1090" width="60" height="50" as="geometry" />
        </mxCell>
        <mxCell id="1516e18e63f93b96-15" value="Relation 7" style="whiteSpace=wrap;html=1;rounded=0;shadow=0;strokeWidth=1;fontSize=14" parent="1" vertex="1">
          <mxGeometry x="1460" y="1090" width="210" height="50" as="geometry" />
        </mxCell>
        <mxCell id="1516e18e63f93b96-18" value="" style="whiteSpace=wrap;html=1;rounded=0;shadow=0;strokeWidth=1;fontSize=14" parent="1" vertex="1">
          <mxGeometry x="1400" y="1040" width="60" height="50" as="geometry" />
        </mxCell>
        <mxCell id="1516e18e63f93b96-19" value="Relation 6" style="whiteSpace=wrap;html=1;rounded=0;shadow=0;strokeWidth=1;fontSize=14" parent="1" vertex="1">
          <mxGeometry x="1460" y="1040" width="210" height="50" as="geometry" />
        </mxCell>
        <mxCell id="1516e18e63f93b96-20" value="" style="whiteSpace=wrap;html=1;rounded=0;shadow=0;strokeWidth=1;fontSize=14" parent="1" vertex="1">
          <mxGeometry x="1400" y="990" width="60" height="50" as="geometry" />
        </mxCell>
        <mxCell id="1516e18e63f93b96-21" value="Relation 5" style="whiteSpace=wrap;html=1;rounded=0;shadow=0;strokeWidth=1;fontSize=14" parent="1" vertex="1">
          <mxGeometry x="1460" y="990" width="210" height="50" as="geometry" />
        </mxCell>
        <mxCell id="1516e18e63f93b96-22" value="" style="whiteSpace=wrap;html=1;rounded=0;shadow=0;strokeWidth=1;fontSize=14" parent="1" vertex="1">
          <mxGeometry x="1400" y="940" width="60" height="50" as="geometry" />
        </mxCell>
        <mxCell id="1516e18e63f93b96-23" value="Relation 4" style="whiteSpace=wrap;html=1;rounded=0;shadow=0;strokeWidth=1;fontSize=14" parent="1" vertex="1">
          <mxGeometry x="1460" y="940" width="210" height="50" as="geometry" />
        </mxCell>
        <mxCell id="1516e18e63f93b96-24" value="" style="whiteSpace=wrap;html=1;rounded=0;shadow=0;strokeWidth=1;fontSize=14" parent="1" vertex="1">
          <mxGeometry x="1400" y="890" width="60" height="50" as="geometry" />
        </mxCell>
        <mxCell id="1516e18e63f93b96-25" value="Relation 3" style="whiteSpace=wrap;html=1;rounded=0;shadow=0;strokeWidth=1;fontSize=14" parent="1" vertex="1">
          <mxGeometry x="1460" y="890" width="210" height="50" as="geometry" />
        </mxCell>
        <mxCell id="1516e18e63f93b96-26" value="" style="whiteSpace=wrap;html=1;rounded=0;shadow=0;strokeWidth=1;fontSize=14" parent="1" vertex="1">
          <mxGeometry x="1400" y="840" width="60" height="50" as="geometry" />
        </mxCell>
        <mxCell id="1516e18e63f93b96-27" value="Relation 2" style="whiteSpace=wrap;html=1;rounded=0;shadow=0;strokeWidth=1;fontSize=14" parent="1" vertex="1">
          <mxGeometry x="1460" y="840" width="210" height="50" as="geometry" />
        </mxCell>
        <mxCell id="1516e18e63f93b96-28" value="" style="whiteSpace=wrap;html=1;rounded=0;shadow=0;strokeWidth=1;fontSize=14" parent="1" vertex="1">
          <mxGeometry x="1400" y="790" width="60" height="50" as="geometry" />
        </mxCell>
        <mxCell id="1516e18e63f93b96-29" value="Relation 1" style="whiteSpace=wrap;html=1;rounded=0;shadow=0;strokeWidth=1;fontSize=14" parent="1" vertex="1">
          <mxGeometry x="1460" y="790" width="210" height="50" as="geometry" />
        </mxCell>
        <mxCell id="1516e18e63f93b96-6" value="" style="ellipse;whiteSpace=wrap;html=1;rounded=0;shadow=0;strokeWidth=3;fontSize=14" parent="1" vertex="1">
          <mxGeometry x="1415" y="800" width="30" height="30" as="geometry" />
        </mxCell>
        <mxCell id="1516e18e63f93b96-7" value="" style="ellipse;whiteSpace=wrap;html=1;rounded=0;shadow=0;strokeWidth=3;fontSize=14;fillColor=#000000;" parent="1" vertex="1">
          <mxGeometry x="1415" y="850" width="30" height="30" as="geometry" />
        </mxCell>
        <mxCell id="1516e18e63f93b96-8" value="" style="triangle;whiteSpace=wrap;html=1;rounded=0;shadow=0;strokeWidth=3;fillColor=#000000;fontSize=14;direction=north;" parent="1" vertex="1">
          <mxGeometry x="1415" y="950" width="30" height="30" as="geometry" />
        </mxCell>
        <mxCell id="1516e18e63f93b96-9" value="" style="triangle;whiteSpace=wrap;html=1;rounded=0;shadow=0;strokeWidth=3;fontSize=14;direction=north;" parent="1" vertex="1">
          <mxGeometry x="1415" y="900" width="30" height="30" as="geometry" />
        </mxCell>
        <mxCell id="1516e18e63f93b96-10" value="" style="whiteSpace=wrap;html=1;rounded=0;shadow=0;strokeWidth=3;fontSize=14" parent="1" vertex="1">
          <mxGeometry x="1415" y="1000" width="30" height="30" as="geometry" />
        </mxCell>
        <mxCell id="1516e18e63f93b96-11" value="" style="whiteSpace=wrap;html=1;rounded=0;shadow=0;strokeWidth=3;fillColor=#000000;fontSize=14" parent="1" vertex="1">
          <mxGeometry x="1415" y="1050" width="30" height="30" as="geometry" />
        </mxCell>
        <mxCell id="1516e18e63f93b96-13" value="" style="rhombus;whiteSpace=wrap;html=1;rounded=0;shadow=0;strokeWidth=3;fontSize=14" parent="1" vertex="1">
          <mxGeometry x="1415" y="1100" width="30" height="30" as="geometry" />
        </mxCell>
        <mxCell id="Za-4VWidWpXMT6zFo5E9-2" value="&lt;span style=&quot;box-sizing: border-box; text-align: left; background-color: rgb(255, 255, 255);&quot;&gt;&lt;code style=&quot;box-sizing: border-box; overflow-wrap: break-word; word-break: break-word; border-radius: 6px; margin: 0px; padding: 0.2em 0.4em; white-space-collapse: break-spaces;&quot;&gt;&lt;font face=&quot;Helvetica&quot; style=&quot;font-size: 14px; color: rgb(232, 31, 58);&quot;&gt;&lt;b&gt;users&lt;/b&gt;&lt;/font&gt;&lt;/code&gt;&lt;/span&gt;" style="rounded=1;whiteSpace=wrap;html=1;" vertex="1" parent="1">
          <mxGeometry x="80" y="70" width="120" height="60" as="geometry" />
        </mxCell>
        <mxCell id="Za-4VWidWpXMT6zFo5E9-3" value="&lt;font style=&quot;font-size: 14px; color: rgb(186, 21, 48);&quot;&gt;&lt;b style=&quot;&quot;&gt;salary&lt;/b&gt;&lt;/font&gt;" style="rounded=1;whiteSpace=wrap;html=1;" vertex="1" parent="1">
          <mxGeometry x="240" y="70" width="120" height="60" as="geometry" />
        </mxCell>
        <mxCell id="Za-4VWidWpXMT6zFo5E9-4" value="&lt;font style=&quot;font-size: 14px; color: rgb(255, 19, 58);&quot;&gt;&lt;b&gt;post&lt;/b&gt;&lt;/font&gt;" style="rounded=1;whiteSpace=wrap;html=1;" vertex="1" parent="1">
          <mxGeometry x="400" y="70" width="120" height="60" as="geometry" />
        </mxCell>
        <mxCell id="Za-4VWidWpXMT6zFo5E9-5" value="&lt;span style=&quot;font-family: -apple-system, BlinkMacSystemFont, Arial, Helvetica, &amp;quot;Arial Unicode MS&amp;quot;, sans-serif; text-align: start; white-space-collapse: preserve; background-color: rgba(255, 255, 255, 0.1);&quot;&gt;&lt;font style=&quot;color: rgb(255, 31, 91); font-size: 14px;&quot;&gt;&lt;b&gt;Department&lt;/b&gt;&lt;/font&gt;&lt;/span&gt;" style="rounded=1;whiteSpace=wrap;html=1;" vertex="1" parent="1">
          <mxGeometry x="560" y="70" width="120" height="60" as="geometry" />
        </mxCell>
        <mxCell id="Za-4VWidWpXMT6zFo5E9-6" value="&lt;span style=&quot;font-family: -apple-system, BlinkMacSystemFont, Arial, Helvetica, &amp;quot;Arial Unicode MS&amp;quot;, sans-serif; text-align: start; white-space-collapse: preserve; background-color: rgba(255, 255, 255, 0.1);&quot;&gt;&lt;font style=&quot;color: rgb(255, 31, 76); font-size: 14px;&quot;&gt;&lt;b&gt;organization&lt;/b&gt;&lt;/font&gt;&lt;/span&gt;" style="rounded=1;whiteSpace=wrap;html=1;" vertex="1" parent="1">
          <mxGeometry x="720" y="70" width="120" height="60" as="geometry" />
        </mxCell>
        <mxCell id="Za-4VWidWpXMT6zFo5E9-7" value="&lt;span style=&quot;font-family: -apple-system, BlinkMacSystemFont, Arial, Helvetica, &amp;quot;Arial Unicode MS&amp;quot;, sans-serif; text-align: start; white-space-collapse: preserve; background-color: rgba(255, 255, 255, 0.1);&quot;&gt;&lt;font style=&quot;color: rgb(255, 19, 82); font-size: 14px;&quot;&gt;&lt;b&gt;Address&lt;/b&gt;&lt;/font&gt;&lt;/span&gt;" style="rounded=1;whiteSpace=wrap;html=1;" vertex="1" parent="1">
          <mxGeometry x="876.75" y="70" width="120" height="60" as="geometry" />
        </mxCell>
        <mxCell id="Za-4VWidWpXMT6zFo5E9-8" value="&lt;span style=&quot;font-family: -apple-system, BlinkMacSystemFont, Arial, Helvetica, &amp;quot;Arial Unicode MS&amp;quot;, sans-serif; text-align: start; white-space-collapse: preserve; background-color: rgba(255, 255, 255, 0.1);&quot;&gt;&lt;font style=&quot;color: rgb(255, 36, 80); font-size: 14px;&quot;&gt;&lt;b&gt;Office&lt;/b&gt;&lt;/font&gt;&lt;/span&gt;" style="rounded=1;whiteSpace=wrap;html=1;" vertex="1" parent="1">
          <mxGeometry x="1040" y="70" width="120" height="60" as="geometry" />
        </mxCell>
        <mxCell id="Za-4VWidWpXMT6zFo5E9-10" value="&lt;span style=&quot;color: rgb(33, 37, 41); font-family: -apple-system, BlinkMacSystemFont, &amp;quot;Segoe UI&amp;quot;, Roboto, &amp;quot;Helvetica Neue&amp;quot;, Arial, &amp;quot;Noto Sans&amp;quot;, sans-serif, &amp;quot;Apple Color Emoji&amp;quot;, &amp;quot;Segoe UI Emoji&amp;quot;, &amp;quot;Segoe UI Symbol&amp;quot;, &amp;quot;Noto Color Emoji&amp;quot;; text-align: left; background-color: rgb(255, 255, 255);&quot;&gt;&lt;font style=&quot;font-size: 10px;&quot;&gt;Суханова Арина Руслановна&lt;/font&gt;&lt;/span&gt;" style="rounded=0;whiteSpace=wrap;html=1;" vertex="1" parent="1">
          <mxGeometry x="80" y="160" width="120" height="40" as="geometry" />
        </mxCell>
        <mxCell id="Za-4VWidWpXMT6zFo5E9-11" value="&lt;span style=&quot;color: rgb(33, 37, 41); font-family: -apple-system, BlinkMacSystemFont, &amp;quot;Segoe UI&amp;quot;, Roboto, &amp;quot;Helvetica Neue&amp;quot;, Arial, &amp;quot;Noto Sans&amp;quot;, sans-serif, &amp;quot;Apple Color Emoji&amp;quot;, &amp;quot;Segoe UI Emoji&amp;quot;, &amp;quot;Segoe UI Symbol&amp;quot;, &amp;quot;Noto Color Emoji&amp;quot;; text-align: left; background-color: rgb(246, 248, 250);&quot;&gt;&lt;font style=&quot;font-size: 10px;&quot;&gt;Баранов Георгий Александрович&lt;/font&gt;&lt;/span&gt;" style="rounded=0;whiteSpace=wrap;html=1;" vertex="1" parent="1">
          <mxGeometry x="80" y="200" width="120" height="40" as="geometry" />
        </mxCell>
        <mxCell id="Za-4VWidWpXMT6zFo5E9-12" value="&lt;span style=&quot;color: rgb(33, 37, 41); font-family: -apple-system, BlinkMacSystemFont, &amp;quot;Segoe UI&amp;quot;, Roboto, &amp;quot;Helvetica Neue&amp;quot;, Arial, &amp;quot;Noto Sans&amp;quot;, sans-serif, &amp;quot;Apple Color Emoji&amp;quot;, &amp;quot;Segoe UI Emoji&amp;quot;, &amp;quot;Segoe UI Symbol&amp;quot;, &amp;quot;Noto Color Emoji&amp;quot;; text-align: left; background-color: rgb(255, 255, 255);&quot;&gt;&lt;font style=&quot;font-size: 10px;&quot;&gt;Вишневская Виктория Матвеевна&lt;/font&gt;&lt;/span&gt;" style="rounded=0;whiteSpace=wrap;html=1;" vertex="1" parent="1">
          <mxGeometry x="80" y="240" width="120" height="40" as="geometry" />
        </mxCell>
        <mxCell id="Za-4VWidWpXMT6zFo5E9-13" value="&lt;span style=&quot;color: rgb(33, 37, 41); font-family: -apple-system, BlinkMacSystemFont, &amp;quot;Segoe UI&amp;quot;, Roboto, &amp;quot;Helvetica Neue&amp;quot;, Arial, &amp;quot;Noto Sans&amp;quot;, sans-serif, &amp;quot;Apple Color Emoji&amp;quot;, &amp;quot;Segoe UI Emoji&amp;quot;, &amp;quot;Segoe UI Symbol&amp;quot;, &amp;quot;Noto Color Emoji&amp;quot;; text-align: left; background-color: rgb(246, 248, 250);&quot;&gt;&lt;font style=&quot;font-size: 10px;&quot;&gt;Алексеев Константин Николаевич&lt;/font&gt;&lt;/span&gt;" style="rounded=0;whiteSpace=wrap;html=1;" vertex="1" parent="1">
          <mxGeometry x="80" y="280" width="120" height="40" as="geometry" />
        </mxCell>
        <mxCell id="Za-4VWidWpXMT6zFo5E9-14" value="&lt;span style=&quot;color: rgb(33, 37, 41); font-family: -apple-system, BlinkMacSystemFont, &amp;quot;Segoe UI&amp;quot;, Roboto, &amp;quot;Helvetica Neue&amp;quot;, Arial, &amp;quot;Noto Sans&amp;quot;, sans-serif, &amp;quot;Apple Color Emoji&amp;quot;, &amp;quot;Segoe UI Emoji&amp;quot;, &amp;quot;Segoe UI Symbol&amp;quot;, &amp;quot;Noto Color Emoji&amp;quot;; text-align: left; background-color: rgb(255, 255, 255);&quot;&gt;&lt;font style=&quot;font-size: 10px;&quot;&gt;Лаптев Владислав Даниилович&lt;/font&gt;&lt;/span&gt;" style="rounded=0;whiteSpace=wrap;html=1;" vertex="1" parent="1">
          <mxGeometry x="80" y="330" width="120" height="40" as="geometry" />
        </mxCell>
        <mxCell id="Za-4VWidWpXMT6zFo5E9-15" value="&lt;span style=&quot;color: rgb(33, 37, 41); font-family: -apple-system, BlinkMacSystemFont, &amp;quot;Segoe UI&amp;quot;, Roboto, &amp;quot;Helvetica Neue&amp;quot;, Arial, &amp;quot;Noto Sans&amp;quot;, sans-serif, &amp;quot;Apple Color Emoji&amp;quot;, &amp;quot;Segoe UI Emoji&amp;quot;, &amp;quot;Segoe UI Symbol&amp;quot;, &amp;quot;Noto Color Emoji&amp;quot;; text-align: left; background-color: rgb(246, 248, 250);&quot;&gt;&lt;font style=&quot;font-size: 10px;&quot;&gt;Коновалов Даниил Матвеевич&lt;/font&gt;&lt;/span&gt;" style="rounded=0;whiteSpace=wrap;html=1;" vertex="1" parent="1">
          <mxGeometry x="80" y="360" width="120" height="40" as="geometry" />
        </mxCell>
        <mxCell id="Za-4VWidWpXMT6zFo5E9-16" value="" style="rounded=0;whiteSpace=wrap;html=1;" vertex="1" parent="1">
          <mxGeometry x="80" y="400" width="120" height="40" as="geometry" />
        </mxCell>
        <mxCell id="Za-4VWidWpXMT6zFo5E9-17" value="" style="rounded=0;whiteSpace=wrap;html=1;" vertex="1" parent="1">
          <mxGeometry x="80" y="440" width="120" height="40" as="geometry" />
        </mxCell>
        <mxCell id="Za-4VWidWpXMT6zFo5E9-18" value="" style="rounded=0;whiteSpace=wrap;html=1;" vertex="1" parent="1">
          <mxGeometry x="80" y="480" width="120" height="40" as="geometry" />
        </mxCell>
        <mxCell id="Za-4VWidWpXMT6zFo5E9-19" value="" style="rounded=0;whiteSpace=wrap;html=1;" vertex="1" parent="1">
          <mxGeometry x="80" y="520" width="120" height="40" as="geometry" />
        </mxCell>
        <mxCell id="Za-4VWidWpXMT6zFo5E9-20" value="" style="rounded=0;whiteSpace=wrap;html=1;" vertex="1" parent="1">
          <mxGeometry x="80" y="560" width="120" height="40" as="geometry" />
        </mxCell>
        <mxCell id="Za-4VWidWpXMT6zFo5E9-21" value="" style="rounded=0;whiteSpace=wrap;html=1;" vertex="1" parent="1">
          <mxGeometry x="80" y="600" width="120" height="40" as="geometry" />
        </mxCell>
        <mxCell id="Za-4VWidWpXMT6zFo5E9-22" value="" style="rounded=0;whiteSpace=wrap;html=1;" vertex="1" parent="1">
          <mxGeometry x="80" y="640" width="120" height="40" as="geometry" />
        </mxCell>
        <mxCell id="Za-4VWidWpXMT6zFo5E9-24" value="" style="rounded=0;whiteSpace=wrap;html=1;" vertex="1" parent="1">
          <mxGeometry x="80" y="680" width="120" height="40" as="geometry" />
        </mxCell>
        <mxCell id="Za-4VWidWpXMT6zFo5E9-26" value="" style="rounded=0;whiteSpace=wrap;html=1;" vertex="1" parent="1">
          <mxGeometry x="80" y="720" width="120" height="40" as="geometry" />
        </mxCell>
        <mxCell id="Za-4VWidWpXMT6zFo5E9-27" value="" style="rounded=0;whiteSpace=wrap;html=1;" vertex="1" parent="1">
          <mxGeometry x="240" y="160" width="120" height="40" as="geometry" />
        </mxCell>
        <mxCell id="Za-4VWidWpXMT6zFo5E9-28" value="" style="rounded=0;whiteSpace=wrap;html=1;" vertex="1" parent="1">
          <mxGeometry x="240" y="200" width="120" height="40" as="geometry" />
        </mxCell>
        <mxCell id="Za-4VWidWpXMT6zFo5E9-29" value="" style="rounded=0;whiteSpace=wrap;html=1;" vertex="1" parent="1">
          <mxGeometry x="240" y="240" width="120" height="40" as="geometry" />
        </mxCell>
        <mxCell id="Za-4VWidWpXMT6zFo5E9-30" value="" style="rounded=0;whiteSpace=wrap;html=1;" vertex="1" parent="1">
          <mxGeometry x="240" y="280" width="120" height="40" as="geometry" />
        </mxCell>
        <mxCell id="Za-4VWidWpXMT6zFo5E9-31" value="" style="rounded=0;whiteSpace=wrap;html=1;" vertex="1" parent="1">
          <mxGeometry x="240" y="320" width="120" height="40" as="geometry" />
        </mxCell>
        <mxCell id="Za-4VWidWpXMT6zFo5E9-32" value="" style="rounded=0;whiteSpace=wrap;html=1;" vertex="1" parent="1">
          <mxGeometry x="240" y="360" width="120" height="40" as="geometry" />
        </mxCell>
        <mxCell id="Za-4VWidWpXMT6zFo5E9-33" value="" style="rounded=0;whiteSpace=wrap;html=1;" vertex="1" parent="1">
          <mxGeometry x="240" y="400" width="120" height="40" as="geometry" />
        </mxCell>
        <mxCell id="Za-4VWidWpXMT6zFo5E9-34" value="" style="rounded=0;whiteSpace=wrap;html=1;" vertex="1" parent="1">
          <mxGeometry x="240" y="440" width="120" height="40" as="geometry" />
        </mxCell>
        <mxCell id="Za-4VWidWpXMT6zFo5E9-35" value="" style="rounded=0;whiteSpace=wrap;html=1;" vertex="1" parent="1">
          <mxGeometry x="240" y="480" width="120" height="40" as="geometry" />
        </mxCell>
        <mxCell id="Za-4VWidWpXMT6zFo5E9-36" value="" style="rounded=0;whiteSpace=wrap;html=1;" vertex="1" parent="1">
          <mxGeometry x="240" y="520" width="120" height="40" as="geometry" />
        </mxCell>
        <mxCell id="Za-4VWidWpXMT6zFo5E9-37" value="" style="rounded=0;whiteSpace=wrap;html=1;" vertex="1" parent="1">
          <mxGeometry x="240" y="560" width="120" height="40" as="geometry" />
        </mxCell>
        <mxCell id="Za-4VWidWpXMT6zFo5E9-38" value="" style="rounded=0;whiteSpace=wrap;html=1;" vertex="1" parent="1">
          <mxGeometry x="240" y="600" width="120" height="40" as="geometry" />
        </mxCell>
        <mxCell id="Za-4VWidWpXMT6zFo5E9-39" value="" style="rounded=0;whiteSpace=wrap;html=1;" vertex="1" parent="1">
          <mxGeometry x="240" y="640" width="120" height="40" as="geometry" />
        </mxCell>
        <mxCell id="Za-4VWidWpXMT6zFo5E9-40" value="" style="rounded=0;whiteSpace=wrap;html=1;" vertex="1" parent="1">
          <mxGeometry x="240" y="680" width="120" height="40" as="geometry" />
        </mxCell>
        <mxCell id="Za-4VWidWpXMT6zFo5E9-41" value="" style="rounded=0;whiteSpace=wrap;html=1;" vertex="1" parent="1">
          <mxGeometry x="240" y="720" width="120" height="40" as="geometry" />
        </mxCell>
        <mxCell id="Za-4VWidWpXMT6zFo5E9-42" value="" style="rounded=0;whiteSpace=wrap;html=1;" vertex="1" parent="1">
          <mxGeometry x="400" y="160" width="120" height="40" as="geometry" />
        </mxCell>
        <mxCell id="Za-4VWidWpXMT6zFo5E9-43" value="" style="rounded=0;whiteSpace=wrap;html=1;" vertex="1" parent="1">
          <mxGeometry x="400" y="200" width="120" height="40" as="geometry" />
        </mxCell>
        <mxCell id="Za-4VWidWpXMT6zFo5E9-44" value="" style="rounded=0;whiteSpace=wrap;html=1;" vertex="1" parent="1">
          <mxGeometry x="400" y="240" width="120" height="40" as="geometry" />
        </mxCell>
        <mxCell id="Za-4VWidWpXMT6zFo5E9-45" value="" style="rounded=0;whiteSpace=wrap;html=1;" vertex="1" parent="1">
          <mxGeometry x="400" y="280" width="120" height="40" as="geometry" />
        </mxCell>
        <mxCell id="Za-4VWidWpXMT6zFo5E9-46" value="" style="rounded=0;whiteSpace=wrap;html=1;" vertex="1" parent="1">
          <mxGeometry x="400" y="320" width="120" height="40" as="geometry" />
        </mxCell>
        <mxCell id="Za-4VWidWpXMT6zFo5E9-47" value="" style="rounded=0;whiteSpace=wrap;html=1;" vertex="1" parent="1">
          <mxGeometry x="400" y="360" width="120" height="40" as="geometry" />
        </mxCell>
        <mxCell id="Za-4VWidWpXMT6zFo5E9-48" value="" style="rounded=0;whiteSpace=wrap;html=1;" vertex="1" parent="1">
          <mxGeometry x="400" y="400" width="120" height="40" as="geometry" />
        </mxCell>
        <mxCell id="Za-4VWidWpXMT6zFo5E9-49" value="" style="rounded=0;whiteSpace=wrap;html=1;" vertex="1" parent="1">
          <mxGeometry x="400" y="440" width="120" height="40" as="geometry" />
        </mxCell>
        <mxCell id="Za-4VWidWpXMT6zFo5E9-50" value="" style="rounded=0;whiteSpace=wrap;html=1;" vertex="1" parent="1">
          <mxGeometry x="400" y="480" width="120" height="40" as="geometry" />
        </mxCell>
        <mxCell id="Za-4VWidWpXMT6zFo5E9-51" value="" style="rounded=0;whiteSpace=wrap;html=1;" vertex="1" parent="1">
          <mxGeometry x="400" y="520" width="120" height="40" as="geometry" />
        </mxCell>
        <mxCell id="Za-4VWidWpXMT6zFo5E9-52" value="" style="rounded=0;whiteSpace=wrap;html=1;" vertex="1" parent="1">
          <mxGeometry x="400" y="560" width="120" height="40" as="geometry" />
        </mxCell>
        <mxCell id="Za-4VWidWpXMT6zFo5E9-53" value="" style="rounded=0;whiteSpace=wrap;html=1;" vertex="1" parent="1">
          <mxGeometry x="400" y="600" width="120" height="40" as="geometry" />
        </mxCell>
        <mxCell id="Za-4VWidWpXMT6zFo5E9-54" value="" style="rounded=0;whiteSpace=wrap;html=1;" vertex="1" parent="1">
          <mxGeometry x="400" y="640" width="120" height="40" as="geometry" />
        </mxCell>
        <mxCell id="Za-4VWidWpXMT6zFo5E9-55" value="" style="rounded=0;whiteSpace=wrap;html=1;" vertex="1" parent="1">
          <mxGeometry x="400" y="680" width="120" height="40" as="geometry" />
        </mxCell>
        <mxCell id="Za-4VWidWpXMT6zFo5E9-56" value="" style="rounded=0;whiteSpace=wrap;html=1;" vertex="1" parent="1">
          <mxGeometry x="400" y="720" width="120" height="40" as="geometry" />
        </mxCell>
        <mxCell id="Za-4VWidWpXMT6zFo5E9-57" value="" style="rounded=0;whiteSpace=wrap;html=1;" vertex="1" parent="1">
          <mxGeometry x="560" y="160" width="120" height="40" as="geometry" />
        </mxCell>
        <mxCell id="Za-4VWidWpXMT6zFo5E9-58" value="" style="rounded=0;whiteSpace=wrap;html=1;" vertex="1" parent="1">
          <mxGeometry x="560" y="200" width="120" height="40" as="geometry" />
        </mxCell>
        <mxCell id="Za-4VWidWpXMT6zFo5E9-59" value="" style="rounded=0;whiteSpace=wrap;html=1;" vertex="1" parent="1">
          <mxGeometry x="560" y="240" width="120" height="40" as="geometry" />
        </mxCell>
        <mxCell id="Za-4VWidWpXMT6zFo5E9-60" value="" style="rounded=0;whiteSpace=wrap;html=1;" vertex="1" parent="1">
          <mxGeometry x="560" y="280" width="120" height="40" as="geometry" />
        </mxCell>
        <mxCell id="Za-4VWidWpXMT6zFo5E9-61" value="" style="rounded=0;whiteSpace=wrap;html=1;" vertex="1" parent="1">
          <mxGeometry x="560" y="320" width="120" height="40" as="geometry" />
        </mxCell>
        <mxCell id="Za-4VWidWpXMT6zFo5E9-62" value="" style="rounded=0;whiteSpace=wrap;html=1;" vertex="1" parent="1">
          <mxGeometry x="560" y="360" width="120" height="40" as="geometry" />
        </mxCell>
        <mxCell id="Za-4VWidWpXMT6zFo5E9-63" value="" style="rounded=0;whiteSpace=wrap;html=1;" vertex="1" parent="1">
          <mxGeometry x="560" y="400" width="120" height="40" as="geometry" />
        </mxCell>
        <mxCell id="Za-4VWidWpXMT6zFo5E9-64" value="" style="rounded=0;whiteSpace=wrap;html=1;" vertex="1" parent="1">
          <mxGeometry x="560" y="440" width="120" height="40" as="geometry" />
        </mxCell>
        <mxCell id="Za-4VWidWpXMT6zFo5E9-65" value="" style="rounded=0;whiteSpace=wrap;html=1;" vertex="1" parent="1">
          <mxGeometry x="560" y="480" width="120" height="40" as="geometry" />
        </mxCell>
        <mxCell id="Za-4VWidWpXMT6zFo5E9-66" value="" style="rounded=0;whiteSpace=wrap;html=1;" vertex="1" parent="1">
          <mxGeometry x="560" y="520" width="120" height="40" as="geometry" />
        </mxCell>
        <mxCell id="Za-4VWidWpXMT6zFo5E9-67" value="" style="rounded=0;whiteSpace=wrap;html=1;" vertex="1" parent="1">
          <mxGeometry x="560" y="560" width="120" height="40" as="geometry" />
        </mxCell>
        <mxCell id="Za-4VWidWpXMT6zFo5E9-68" value="" style="rounded=0;whiteSpace=wrap;html=1;" vertex="1" parent="1">
          <mxGeometry x="560" y="600" width="120" height="40" as="geometry" />
        </mxCell>
        <mxCell id="Za-4VWidWpXMT6zFo5E9-69" value="" style="rounded=0;whiteSpace=wrap;html=1;" vertex="1" parent="1">
          <mxGeometry x="560" y="640" width="120" height="40" as="geometry" />
        </mxCell>
        <mxCell id="Za-4VWidWpXMT6zFo5E9-70" value="" style="rounded=0;whiteSpace=wrap;html=1;" vertex="1" parent="1">
          <mxGeometry x="560" y="680" width="120" height="40" as="geometry" />
        </mxCell>
        <mxCell id="Za-4VWidWpXMT6zFo5E9-71" value="" style="rounded=0;whiteSpace=wrap;html=1;" vertex="1" parent="1">
          <mxGeometry x="560" y="720" width="120" height="40" as="geometry" />
        </mxCell>
        <mxCell id="Za-4VWidWpXMT6zFo5E9-72" value="" style="rounded=0;whiteSpace=wrap;html=1;" vertex="1" parent="1">
          <mxGeometry x="720" y="160" width="120" height="40" as="geometry" />
        </mxCell>
        <mxCell id="Za-4VWidWpXMT6zFo5E9-73" value="" style="rounded=0;whiteSpace=wrap;html=1;" vertex="1" parent="1">
          <mxGeometry x="720" y="200" width="120" height="40" as="geometry" />
        </mxCell>
        <mxCell id="Za-4VWidWpXMT6zFo5E9-74" value="" style="rounded=0;whiteSpace=wrap;html=1;" vertex="1" parent="1">
          <mxGeometry x="720" y="240" width="120" height="40" as="geometry" />
        </mxCell>
        <mxCell id="Za-4VWidWpXMT6zFo5E9-75" value="" style="rounded=0;whiteSpace=wrap;html=1;" vertex="1" parent="1">
          <mxGeometry x="720" y="280" width="120" height="40" as="geometry" />
        </mxCell>
        <mxCell id="Za-4VWidWpXMT6zFo5E9-76" value="" style="rounded=0;whiteSpace=wrap;html=1;" vertex="1" parent="1">
          <mxGeometry x="720" y="320" width="120" height="40" as="geometry" />
        </mxCell>
        <mxCell id="Za-4VWidWpXMT6zFo5E9-77" value="" style="rounded=0;whiteSpace=wrap;html=1;" vertex="1" parent="1">
          <mxGeometry x="720" y="360" width="120" height="40" as="geometry" />
        </mxCell>
        <mxCell id="Za-4VWidWpXMT6zFo5E9-78" value="" style="rounded=0;whiteSpace=wrap;html=1;" vertex="1" parent="1">
          <mxGeometry x="720" y="400" width="120" height="40" as="geometry" />
        </mxCell>
        <mxCell id="Za-4VWidWpXMT6zFo5E9-79" value="" style="rounded=0;whiteSpace=wrap;html=1;" vertex="1" parent="1">
          <mxGeometry x="720" y="440" width="120" height="40" as="geometry" />
        </mxCell>
        <mxCell id="Za-4VWidWpXMT6zFo5E9-80" value="" style="rounded=0;whiteSpace=wrap;html=1;" vertex="1" parent="1">
          <mxGeometry x="720" y="480" width="120" height="40" as="geometry" />
        </mxCell>
        <mxCell id="Za-4VWidWpXMT6zFo5E9-81" value="" style="rounded=0;whiteSpace=wrap;html=1;" vertex="1" parent="1">
          <mxGeometry x="720" y="520" width="120" height="40" as="geometry" />
        </mxCell>
        <mxCell id="Za-4VWidWpXMT6zFo5E9-82" value="" style="rounded=0;whiteSpace=wrap;html=1;" vertex="1" parent="1">
          <mxGeometry x="720" y="560" width="120" height="40" as="geometry" />
        </mxCell>
        <mxCell id="Za-4VWidWpXMT6zFo5E9-83" value="" style="rounded=0;whiteSpace=wrap;html=1;" vertex="1" parent="1">
          <mxGeometry x="720" y="600" width="120" height="40" as="geometry" />
        </mxCell>
        <mxCell id="Za-4VWidWpXMT6zFo5E9-84" value="" style="rounded=0;whiteSpace=wrap;html=1;" vertex="1" parent="1">
          <mxGeometry x="720" y="640" width="120" height="40" as="geometry" />
        </mxCell>
        <mxCell id="Za-4VWidWpXMT6zFo5E9-85" value="" style="rounded=0;whiteSpace=wrap;html=1;" vertex="1" parent="1">
          <mxGeometry x="720" y="680" width="120" height="40" as="geometry" />
        </mxCell>
        <mxCell id="Za-4VWidWpXMT6zFo5E9-86" value="" style="rounded=0;whiteSpace=wrap;html=1;" vertex="1" parent="1">
          <mxGeometry x="720" y="720" width="120" height="40" as="geometry" />
        </mxCell>
        <mxCell id="Za-4VWidWpXMT6zFo5E9-87" value="" style="rounded=0;whiteSpace=wrap;html=1;" vertex="1" parent="1">
          <mxGeometry x="877" y="160" width="120" height="40" as="geometry" />
        </mxCell>
        <mxCell id="Za-4VWidWpXMT6zFo5E9-88" value="" style="rounded=0;whiteSpace=wrap;html=1;" vertex="1" parent="1">
          <mxGeometry x="877" y="200" width="120" height="40" as="geometry" />
        </mxCell>
        <mxCell id="Za-4VWidWpXMT6zFo5E9-89" value="" style="rounded=0;whiteSpace=wrap;html=1;" vertex="1" parent="1">
          <mxGeometry x="877" y="240" width="120" height="40" as="geometry" />
        </mxCell>
        <mxCell id="Za-4VWidWpXMT6zFo5E9-90" value="" style="rounded=0;whiteSpace=wrap;html=1;" vertex="1" parent="1">
          <mxGeometry x="877" y="280" width="120" height="40" as="geometry" />
        </mxCell>
        <mxCell id="Za-4VWidWpXMT6zFo5E9-91" value="" style="rounded=0;whiteSpace=wrap;html=1;" vertex="1" parent="1">
          <mxGeometry x="877" y="320" width="120" height="40" as="geometry" />
        </mxCell>
        <mxCell id="Za-4VWidWpXMT6zFo5E9-92" value="" style="rounded=0;whiteSpace=wrap;html=1;" vertex="1" parent="1">
          <mxGeometry x="877" y="360" width="120" height="40" as="geometry" />
        </mxCell>
        <mxCell id="Za-4VWidWpXMT6zFo5E9-93" value="" style="rounded=0;whiteSpace=wrap;html=1;" vertex="1" parent="1">
          <mxGeometry x="877" y="400" width="120" height="40" as="geometry" />
        </mxCell>
        <mxCell id="Za-4VWidWpXMT6zFo5E9-94" value="" style="rounded=0;whiteSpace=wrap;html=1;" vertex="1" parent="1">
          <mxGeometry x="877" y="440" width="120" height="40" as="geometry" />
        </mxCell>
        <mxCell id="Za-4VWidWpXMT6zFo5E9-95" value="" style="rounded=0;whiteSpace=wrap;html=1;" vertex="1" parent="1">
          <mxGeometry x="877" y="480" width="120" height="40" as="geometry" />
        </mxCell>
        <mxCell id="Za-4VWidWpXMT6zFo5E9-96" value="" style="rounded=0;whiteSpace=wrap;html=1;" vertex="1" parent="1">
          <mxGeometry x="877" y="520" width="120" height="40" as="geometry" />
        </mxCell>
        <mxCell id="Za-4VWidWpXMT6zFo5E9-97" value="" style="rounded=0;whiteSpace=wrap;html=1;" vertex="1" parent="1">
          <mxGeometry x="877" y="560" width="120" height="40" as="geometry" />
        </mxCell>
        <mxCell id="Za-4VWidWpXMT6zFo5E9-98" value="" style="rounded=0;whiteSpace=wrap;html=1;" vertex="1" parent="1">
          <mxGeometry x="877" y="600" width="120" height="40" as="geometry" />
        </mxCell>
        <mxCell id="Za-4VWidWpXMT6zFo5E9-99" value="" style="rounded=0;whiteSpace=wrap;html=1;" vertex="1" parent="1">
          <mxGeometry x="877" y="640" width="120" height="40" as="geometry" />
        </mxCell>
        <mxCell id="Za-4VWidWpXMT6zFo5E9-100" value="" style="rounded=0;whiteSpace=wrap;html=1;" vertex="1" parent="1">
          <mxGeometry x="877" y="680" width="120" height="40" as="geometry" />
        </mxCell>
        <mxCell id="Za-4VWidWpXMT6zFo5E9-101" value="" style="rounded=0;whiteSpace=wrap;html=1;" vertex="1" parent="1">
          <mxGeometry x="877" y="720" width="120" height="40" as="geometry" />
        </mxCell>
        <mxCell id="Za-4VWidWpXMT6zFo5E9-117" value="" style="rounded=0;whiteSpace=wrap;html=1;" vertex="1" parent="1">
          <mxGeometry x="1040" y="160" width="120" height="40" as="geometry" />
        </mxCell>
        <mxCell id="Za-4VWidWpXMT6zFo5E9-118" value="" style="rounded=0;whiteSpace=wrap;html=1;" vertex="1" parent="1">
          <mxGeometry x="1040" y="200" width="120" height="40" as="geometry" />
        </mxCell>
        <mxCell id="Za-4VWidWpXMT6zFo5E9-119" value="" style="rounded=0;whiteSpace=wrap;html=1;" vertex="1" parent="1">
          <mxGeometry x="1040" y="240" width="120" height="40" as="geometry" />
        </mxCell>
        <mxCell id="Za-4VWidWpXMT6zFo5E9-120" value="" style="rounded=0;whiteSpace=wrap;html=1;" vertex="1" parent="1">
          <mxGeometry x="1040" y="280" width="120" height="40" as="geometry" />
        </mxCell>
        <mxCell id="Za-4VWidWpXMT6zFo5E9-121" value="" style="rounded=0;whiteSpace=wrap;html=1;" vertex="1" parent="1">
          <mxGeometry x="1040" y="320" width="120" height="40" as="geometry" />
        </mxCell>
        <mxCell id="Za-4VWidWpXMT6zFo5E9-122" value="" style="rounded=0;whiteSpace=wrap;html=1;" vertex="1" parent="1">
          <mxGeometry x="1040" y="360" width="120" height="40" as="geometry" />
        </mxCell>
        <mxCell id="Za-4VWidWpXMT6zFo5E9-123" value="" style="rounded=0;whiteSpace=wrap;html=1;" vertex="1" parent="1">
          <mxGeometry x="1040" y="400" width="120" height="40" as="geometry" />
        </mxCell>
        <mxCell id="Za-4VWidWpXMT6zFo5E9-124" value="" style="rounded=0;whiteSpace=wrap;html=1;" vertex="1" parent="1">
          <mxGeometry x="1040" y="440" width="120" height="40" as="geometry" />
        </mxCell>
        <mxCell id="Za-4VWidWpXMT6zFo5E9-125" value="" style="rounded=0;whiteSpace=wrap;html=1;" vertex="1" parent="1">
          <mxGeometry x="1040" y="480" width="120" height="40" as="geometry" />
        </mxCell>
        <mxCell id="Za-4VWidWpXMT6zFo5E9-126" value="" style="rounded=0;whiteSpace=wrap;html=1;" vertex="1" parent="1">
          <mxGeometry x="1040" y="520" width="120" height="40" as="geometry" />
        </mxCell>
        <mxCell id="Za-4VWidWpXMT6zFo5E9-127" value="" style="rounded=0;whiteSpace=wrap;html=1;" vertex="1" parent="1">
          <mxGeometry x="1040" y="560" width="120" height="40" as="geometry" />
        </mxCell>
        <mxCell id="Za-4VWidWpXMT6zFo5E9-128" value="" style="rounded=0;whiteSpace=wrap;html=1;" vertex="1" parent="1">
          <mxGeometry x="1040" y="600" width="120" height="40" as="geometry" />
        </mxCell>
        <mxCell id="Za-4VWidWpXMT6zFo5E9-129" value="" style="rounded=0;whiteSpace=wrap;html=1;" vertex="1" parent="1">
          <mxGeometry x="1040" y="640" width="120" height="40" as="geometry" />
        </mxCell>
        <mxCell id="Za-4VWidWpXMT6zFo5E9-130" value="" style="rounded=0;whiteSpace=wrap;html=1;" vertex="1" parent="1">
          <mxGeometry x="1040" y="680" width="120" height="40" as="geometry" />
        </mxCell>
        <mxCell id="Za-4VWidWpXMT6zFo5E9-131" value="" style="rounded=0;whiteSpace=wrap;html=1;" vertex="1" parent="1">
          <mxGeometry x="1040" y="720" width="120" height="40" as="geometry" />
        </mxCell>
      </root>
    </mxGraphModel>
  </diagram>
</mxfile>
